<?xml version="1.0"?>
<svg xmlns:rdf="http://www.w3.org/1999/02/22-rdf-syntax-ns#" xmlns="http://www.w3.org/2000/svg" xmlns:cc="http://web.resource.org/cc/" xmlns:dc="http://purl.org/dc/elements/1.1/" id="svg2" viewBox="0 0 162 162" version="1.0">
 <g id="layer1">
  <g id="g5204">
   <path id="path3241" d="m158.5 81c0 42.78-34.72 77.5-77.5 77.5s-77.5-34.72-77.5-77.5 34.72-77.5 77.5-77.5 77.5 34.72 77.5 77.5z" fill="#483d8b"/>
   <path id="path3239" d="m157.08 81c0 42-34.08 76.08-76.08 76.08-41.997 0-76.082-34.08-76.082-76.08-0.0003-41.997 34.085-76.082 76.082-76.082 42-0.0003 76.08 34.085 76.08 76.082z" fill="#ffc0cb"/>
   <path id="rect2160" fill="#483d8b" d="m17 66v58.09c6.242 9.7 14.145 15.9 24 21.91h80c8.34-5.09 15.17-11.2 21-19v-61h-125z"/>
   <path id="path3134" fill="#483d8b" stroke-opacity="0" d="m152 81h-145l25-50h95l25 50z"/>
   <path id="rect3136" fill="#ffc0cb" d="m67 106c5-5 20-5 25 0v40h-25v-40z"/>
   <path id="path3139" fill="#483d8b" d="m72 110c4-3 11-3 15 0v15h-15v-15z"/>
   <path id="path3141" fill="#483d8b" d="m89.5 131.5c0 1.38-1.12 2.5-2.5 2.5s-2.5-1.12-2.5-2.5 1.12-2.5 2.5-2.5 2.5 1.12 2.5 2.5z"/>
   <path id="rect3209" d="m105 20l2 6v6h15v-6l2-6h-19z" fill="#483d8b"/>
   <path id="path2238" fill="#ffc0cb" d="m67 57l-10-7-10 7v24h20v-24z"/>
   <path id="path2250" d="m110 96v7h8v-7h-8zm11 0v7h8v-7h-8zm-11 9v7h8v-7h-8zm11 0v7h8v-7h-8zm-11 9v7h8v-7h-8zm11 0v7h8v-7h-8z" fill="#ffc0cb"/>
   <path id="path2252" fill="#ffc0cb" d="m112 57l-10-7-10 7v24h20v-24z"/>
   <path id="path2266" fill="#483d8b" d="m49 59v20h7v-20h-7z"/>
   <path id="path2268" fill="#483d8b" d="m58 59v20h7v-20h-7z"/>
   <path id="path2287" d="m30 96v7h8v-7h-8zm11 0v7h8v-7h-8zm-11 9v7h8v-7h-8zm11 0v7h8v-7h-8zm-11 9v7h8v-7h-8zm11 0v7h8v-7h-8z" fill="#ffc0cb"/>
   <path id="path2289" fill="#483d8b" d="m94 59v20h7v-20h-7z"/>
   <path id="path2291" fill="#483d8b" d="m103 59v20h7v-20h-7z"/>
  </g>
 </g>
 <metadata>
  <rdf:RDF>
   <cc:Work>
    <dc:format>image/svg+xml</dc:format>
    <dc:type rdf:resource="http://purl.org/dc/dcmitype/StillImage"/>
    <cc:license rdf:resource="http://creativecommons.org/licenses/publicdomain/"/>
    <dc:publisher>
     <cc:Agent rdf:about="http://openclipart.org/">
      <dc:title>Openclipart</dc:title>
     </cc:Agent>
    </dc:publisher>
   </cc:Work>
   <cc:License rdf:about="http://creativecommons.org/licenses/publicdomain/">
    <cc:permits rdf:resource="http://creativecommons.org/ns#Reproduction"/>
    <cc:permits rdf:resource="http://creativecommons.org/ns#Distribution"/>
    <cc:permits rdf:resource="http://creativecommons.org/ns#DerivativeWorks"/>
   </cc:License>
  </rdf:RDF>
 </metadata>
</svg>
